<svg 
    width="200" 
    height="200" 
    viewBox="0 0 64 64" 
    xmlns="http://www.w3.org/2000/svg"
>
    <g fill="#5A9BF6">
        <path d="M32 2c-4.418 0-8 3.582-8 8v10h4V10a4 4 0 0 1 8 0v10h4V10c0-4.418-3.582-8-8-8zm-8 22a6 6 0 0 1 12 0v6a10 10 0 0 0 7.55 9.5A10.002 10.002 0 0 0 32 50a10.002 10.002 0 0 0-9.55-10.5A10 10 0 0 0 30 30v-6a6 6 0 0 1-12 0zm20 14a6 6 0 0 1 6 6v6h-4v-6a2 2 0 1 0-4 0v6h-4v-6a6 6 0 0 1 6-6z"/>
    </g>
    <g fill="#6C63FF">
        <rect x="28" y="4" width="8" height="16" />
        <rect x="32" y="20" width="4" height="16" />
    </g>
    <g fill="#6C63FF">
        <path d="M32 54a8 8 0 0 0 8-8H24a8 8 0 0 0 8 8z"/>
    </g>
</svg>
